<?xml version="1.0" encoding="UTF-8" standalone="no"?>
<!-- Created with Inkscape (http://www.inkscape.org/) -->

<svg
   width="24"
   height="24"
   viewBox="0 0 6.3500046 6.3500004"
   version="1.1"
   id="svg507"
   inkscape:export-filename="../repos/inbaz3/apps/inbaz3/public/juggling-icon.svg"
   inkscape:export-xdpi="27.631338"
   inkscape:export-ydpi="27.631338"
   inkscape:version="1.2.2 (b0a8486541, 2022-12-01)"
   sodipodi:docname="juggling-icon.svg"
   xmlns:inkscape="http://www.inkscape.org/namespaces/inkscape"
   xmlns:sodipodi="http://sodipodi.sourceforge.net/DTD/sodipodi-0.dtd"
   xmlns="http://www.w3.org/2000/svg"
   xmlns:svg="http://www.w3.org/2000/svg">
  <sodipodi:namedview
     id="namedview509"
     pagecolor="#ffffff"
     bordercolor="#000000"
     borderopacity="0.25"
     inkscape:showpageshadow="2"
     inkscape:pageopacity="0.0"
     inkscape:pagecheckerboard="0"
     inkscape:deskcolor="#d1d1d1"
     inkscape:document-units="mm"
     showgrid="false"
     inkscape:zoom="20.70196"
     inkscape:cx="5.820705"
     inkscape:cy="13.018091"
     inkscape:window-width="2494"
     inkscape:window-height="1368"
     inkscape:window-x="0"
     inkscape:window-y="0"
     inkscape:window-maximized="1"
     inkscape:current-layer="layer1" />
  <defs
     id="defs504" />
  <g
     inkscape:label="Layer 1"
     inkscape:groupmode="layer"
     id="layer1"
     transform="translate(-56.558032,-82.879994)">
    <g
       id="g2388"
       transform="matrix(0.28509805,0,0,0.28509805,40.152229,58.986794)">
      <path
         d="m 64.066101,105.32292 0.613405,0.50876 a 0.85641181,0.85641181 0 0 0 1.207101,-0.10261 l 2.191332,-2.62765 a 0.85985121,0.85985121 0 0 0 -0.105846,-1.20593 l -0.616644,-0.50759 a 0.84265416,0.84265416 0 0 0 -0.624485,-0.19728 0.87704821,0.87704821 0 0 0 -0.302347,0.0844 l -0.616641,-0.50758 a 3.1298584,3.1298584 0 0 0 -1.604916,-0.71887 l -1.84083,-1.548037 a 0.90112406,0.90112406 0 0 0 -1.467252,0.775604 0.86329061,0.86329061 0 0 0 0.319307,0.615811 l 0.564618,0.475282 a 1.5202169,1.5202169 0 0 1 -1.134651,-0.35199 3.2261617,3.2261617 0 0 1 -0.957758,-1.36435 l -0.377607,-1.037467 a 0.84265416,0.84265416 0 0 0 -1.580438,0.575233 l 1.014011,2.785974 a 3.0954643,3.0954643 0 0 0 2.375172,1.99042 4.1754374,4.1754374 0 0 1 0.971837,0.2868 10.610564,10.610564 0 0 1 1.23792,0.78656 v 0 l 0.463218,0.38774 a 0.85985121,0.85985121 0 0 0 0.27149,0.89675 z m 2.851378,-3.39861 0.616641,0.50759 a 0.17197024,0.17197024 0 0 1 0.02063,0.23772 l -2.191337,2.62765 a 0.16853084,0.16853084 0 0 1 -0.237715,0.0206 l -0.613409,-0.50877 a 0.16509143,0.16509143 0 0 1 -0.02063,-0.23772 v 0 l 2.188105,-2.62647 v 0 a 0.16509143,0.16509143 0 0 1 0.237715,-0.0206 z m -4.539747,0.7007 a 4.8151669,4.8151669 0 0 0 -1.136408,-0.33671 2.4075833,2.4075833 0 0 1 -1.848469,-1.54892 l -1.014011,-2.785972 a 0.15133381,0.15133381 0 0 1 0.09486,-0.19191 0.14789441,0.14789441 0 0 1 0.192792,0.08722 l 0.371726,1.021307 a 3.9381185,3.9381185 0 0 0 1.159421,1.656965 2.2149767,2.2149767 0 0 0 1.854031,0.47813 l 0.417829,-0.0789 0.642514,0.53843 a 0.34394048,0.34394048 0 0 0 0.339998,0.0593 0.31986464,0.31986464 0 0 0 0.14513,-0.10406 0.34394048,0.34394048 0 0 0 -0.04364,-0.4819 l -1.899608,-1.588863 a 0.18572786,0.18572786 0 0 1 -0.06997,-0.131918 0.20980369,0.20980369 0 0 1 0.05344,-0.154874 0.20292488,0.20292488 0 0 1 0.287372,-0.03505 l 1.919894,1.614425 a 0.34394048,0.34394048 0 0 0 0.18926,0.0775 2.4419774,2.4419774 0 0 1 1.335413,0.57173 l 0.563446,0.47205 -1.749831,2.10095 -0.422072,-0.35514 a 10.662155,10.662155 0 0 0 -1.38311,-0.88378 z"
         fill="#f4a261"
         id="path54"
         style="opacity:0.7;stroke-width:0.343941" />
      <path
         d="m 79.204898,97.11386 a 0.83921476,0.83921476 0 0 0 -1.074451,0.498343 l -0.371726,1.021307 a 3.2261617,3.2261617 0 0 1 -0.957763,1.364347 1.5202169,1.5202169 0 0 1 -1.134651,0.351993 l 0.564622,-0.475282 a 0.87360881,0.87360881 0 0 0 0.319303,-0.615812 0.90456347,0.90456347 0 0 0 -0.815437,-0.977579 0.88736642,0.88736642 0 0 0 -0.651815,0.201975 l -1.840826,1.548038 a 3.1573736,3.1573736 0 0 0 -1.612856,0.73062 l -0.613409,0.50876 a 0.87704821,0.87704821 0 0 0 -0.302343,-0.0844 0.84265416,0.84265416 0 0 0 -0.624489,0.19728 l -0.616644,0.50759 a 0.85641181,0.85641181 0 0 0 -0.105846,1.20593 l 2.191332,2.62765 a 0.8529724,0.8529724 0 0 0 1.205921,0.10584 l 0.613413,-0.50876 a 0.85985121,0.85985121 0 0 0 0.271485,-0.89675 l 0.446465,-0.37188 a 10.098093,10.098093 0 0 1 1.254677,-0.80242 4.1754374,4.1754374 0 0 1 0.971837,-0.2868 3.0954643,3.0954643 0 0 0 2.375177,-1.99042 l 1.014011,-2.785971 a 0.83921476,0.83921476 0 0 0 -0.505987,-1.073576 z m -6.269162,7.68111 -0.613414,0.50876 a 0.16509143,0.16509143 0 0 1 -0.237715,-0.0206 l -2.191332,-2.62765 a 0.17197024,0.17197024 0 0 1 0.02063,-0.23772 v 0 l 0.61664,-0.50759 a 0.16853084,0.16853084 0 0 1 0.237716,0.0206 l 2.188105,2.62647 v 0 a 0.16509143,0.16509143 0 0 1 -0.02064,0.23772 z m 5.114743,-4.05683 a 2.4075833,2.4075833 0 0 1 -1.848473,1.54892 4.8151669,4.8151669 0 0 0 -1.136408,0.33671 10.565851,10.565851 0 0 0 -1.395155,0.88671 l -0.412957,0.34016 -1.746604,-2.09977 0.563149,-0.46118 a 2.4419774,2.4419774 0 0 1 1.336589,-0.57496 0.34394048,0.34394048 0 0 0 0.189259,-0.0775 l 1.919899,-1.614424 a 0.20980369,0.20980369 0 0 1 0.143699,-0.04286 0.22012191,0.22012191 0 0 1 0.197105,0.232785 0.18572786,0.18572786 0 0 1 -0.06997,0.131918 l -1.893146,1.591221 a 0.34394048,0.34394048 0 0 0 -0.04363,0.4819 0.31986464,0.31986464 0 0 0 0.14513,0.10406 0.34394048,0.34394048 0 0 0 0.339998,-0.0593 l 0.642514,-0.53843 0.417829,0.0789 a 2.2149767,2.2149767 0 0 0 1.84756,-0.48049 3.9381185,3.9381185 0 0 0 1.15943,-1.65696 l 0.37055,-1.018075 a 0.14789441,0.14789441 0 0 1 0.192788,-0.08722 0.15133381,0.15133381 0 0 1 0.09486,0.191911 z"
         fill="#f4a261"
         id="path56"
         style="opacity:0.7;stroke-width:0.343941" />
      <path
         id="circle58"
         style="opacity:0.7;fill:#2a9d8f;stroke-width:0.343941"
         d="m 63.865168,93.282036 a 1.7197024,1.7197024 0 0 1 -1.719702,1.719702 1.7197024,1.7197024 0 0 1 -1.719703,-1.719702 1.7197024,1.7197024 0 0 1 1.719703,-1.719703 1.7197024,1.7197024 0 0 1 1.719702,1.719703 z" />
      <path
         id="circle60"
         style="opacity:0.7;fill:#e76f51;stroke-width:0.343941"
         d="m 76.055617,93.637108 a 1.7197024,1.7197024 0 0 1 -1.719702,1.719702 1.7197024,1.7197024 0 0 1 -1.719703,-1.719702 1.7197024,1.7197024 0 0 1 1.719703,-1.719703 1.7197024,1.7197024 0 0 1 1.719702,1.719703 z" />
      <path
         id="circle62"
         style="opacity:0.7;fill:#f4a261;stroke-width:0.343941"
         d="m 69.26258,85.679077 a 1.7197024,1.7197024 0 0 1 -1.719703,1.719703 1.7197024,1.7197024 0 0 1 -1.719702,-1.719703 1.7197024,1.7197024 0 0 1 1.719702,-1.719702 1.7197024,1.7197024 0 0 1 1.719703,1.719702 z" />
    </g>
  </g>
</svg>
