<?xml version="1.0" encoding="UTF-8" standalone="no"?>
<svg
   width="159.12891"
   height="44.133183"
   viewBox="0 0 159.12891 44.133183"
   version="1.1"
   id="svg68"
   sodipodi:docname="inbaz-icon.svg"
   inkscape:export-filename="inbaz-icon.svg"
   inkscape:export-xdpi="101.79507"
   inkscape:export-ydpi="101.79507"
   inkscape:version="1.2.2 (b0a8486541, 2022-12-01)"
   xmlns:inkscape="http://www.inkscape.org/namespaces/inkscape"
   xmlns:sodipodi="http://sodipodi.sourceforge.net/DTD/sodipodi-0.dtd"
   xmlns:xlink="http://www.w3.org/1999/xlink"
   xmlns="http://www.w3.org/2000/svg"
   xmlns:svg="http://www.w3.org/2000/svg">
  <defs
     id="defs72">
    <linearGradient
       inkscape:collect="always"
       id="linearGradient11095">
      <stop
         style="stop-color:#e76f51;stop-opacity:1;"
         offset="0.20955923"
         id="stop11091" />
      <stop
         style="stop-color:#e76f51;stop-opacity:0;"
         offset="1"
         id="stop11093" />
    </linearGradient>
    <linearGradient
       inkscape:collect="always"
       id="linearGradient11079">
      <stop
         style="stop-color:#e76f51;stop-opacity:1;"
         offset="0"
         id="stop11075" />
      <stop
         style="stop-color:#e76f51;stop-opacity:0;"
         offset="1"
         id="stop11077" />
    </linearGradient>
    <linearGradient
       inkscape:collect="always"
       xlink:href="#linearGradient11079"
       id="linearGradient11097"
       x1="4.4979186"
       y1="23.11381"
       x2="27.543467"
       y2="23.11381"
       gradientUnits="userSpaceOnUse" />
    <linearGradient
       inkscape:collect="always"
       xlink:href="#linearGradient11079"
       id="linearGradient11099"
       x1="24.55283"
       y1="24.627975"
       x2="71.030411"
       y2="24.627975"
       gradientUnits="userSpaceOnUse" />
    <linearGradient
       inkscape:collect="always"
       xlink:href="#linearGradient11079"
       id="linearGradient11101"
       x1="64.822441"
       y1="21.909685"
       x2="94.854469"
       y2="21.909685"
       gradientUnits="userSpaceOnUse" />
    <linearGradient
       inkscape:collect="always"
       xlink:href="#linearGradient11079"
       id="linearGradient11103"
       x1="93.560799"
       y1="22.839066"
       x2="129.13568"
       y2="22.839066"
       gradientUnits="userSpaceOnUse" />
    <linearGradient
       inkscape:collect="always"
       xlink:href="#linearGradient11095"
       id="linearGradient11105"
       x1="131.21878"
       y1="22.921614"
       x2="163.62682"
       y2="22.921614"
       gradientUnits="userSpaceOnUse" />
  </defs>
  <sodipodi:namedview
     id="namedview70"
     pagecolor="#ffffff"
     bordercolor="#000000"
     borderopacity="0.25"
     inkscape:showpageshadow="false"
     inkscape:pageopacity="0.0"
     inkscape:pagecheckerboard="0"
     inkscape:deskcolor="#d1d1d1"
     showgrid="true"
     borderlayer="false"
     showborder="false"
     shape-rendering="auto"
     inkscape:zoom="4.8762084"
     inkscape:cx="125.60989"
     inkscape:cy="33.119996"
     inkscape:window-width="2494"
     inkscape:window-height="1368"
     inkscape:window-x="0"
     inkscape:window-y="0"
     inkscape:window-maximized="1"
     inkscape:current-layer="g1095">
    <inkscape:grid
       type="xygrid"
       id="grid239"
       originx="-95.024187"
       originy="-55.003069" />
  </sodipodi:namedview>
  <!-- Juggling Hands and Balls (Behind the Text) -->
  <!-- Text INBAZ (Circus-style) -->
  <g
     id="g1095"
     transform="translate(-4.4979184,-2.561385)">
    <g
       aria-label="INBAZ"
       id="text66"
       style="font-weight:bold;font-size:51.6526px;font-family:cursive;letter-spacing:2;fill:#e63946;stroke:#000000;stroke-width:0.745;stroke-dasharray:none">
      <path
         d="m 5.7200543,37.902695 c 2.7892403,-0.05165 2.7892403,-0.05165 4.1838605,-0.05165 1.0330522,0 1.0330522,0 5.8883962,0.05165 h 2.066104 L 19.717909,36.61138 14.914217,36.249812 C 15.843964,31.807688 19.14973,18.842886 21.577402,9.9069859 l 2.995851,-0.3099156 1.807841,-1.291315 h -1.756188 l -6.14666,0.051653 c -1.342967,0 -2.221061,0 -3.97725,-0.051653 l -1.807841,1.291315 4.648734,0.3099156 C 16.36049,14.090846 14.397691,21.942042 11.40184,33.512224 c -0.103305,0.361568 -0.464873,1.549578 -0.774789,2.737588 L 7.5795479,36.61138 Z"
         id="path1143"
         style="fill:url(#linearGradient11097);fill-opacity:1;stroke-width:0.745;stroke-dasharray:none" />
      <path
         d="m 25.230243,37.902695 c 1.342967,0.103305 2.014451,0.154958 2.840893,0.154958 2.221061,0 3.615682,-0.309916 4.958649,-1.136358 2.530978,-1.549578 5.113607,-5.16526 6.766491,-9.555731 0.826441,-2.169409 1.136357,-3.305766 3.357419,-12.293318 1.291315,5.578481 1.291315,5.630133 1.859493,8.006153 1.446273,5.940049 2.892546,10.382172 4.545429,13.687939 3.150808,6.404922 7.696237,9.55573 13.791244,9.55573 2.634283,0 4.493776,-0.464873 6.818143,-1.807841 l -1.239662,-4.597081 c -1.549578,3.615682 -2.995851,5.010302 -5.268565,5.010302 -3.254114,0 -6.249965,-2.530977 -8.884248,-7.541279 0.878095,-4.442124 1.291315,-6.456575 2.634283,-11.880098 2.221062,-8.987552 3.357419,-12.70654 5.010302,-16.1156111 1.084705,-2.2210618 2.324367,-2.9958508 4.700387,-2.9958508 0.413221,0 0.723136,0 1.39462,0.1033052 L 70.426267,3.0371902 C 69.806436,2.9855376 69.238257,2.933885 68.825036,2.933885 c -2.169409,0 -4.493776,1.4979253 -7.179711,4.6487339 -2.479325,2.8925451 -3.409071,5.4751751 -5.940049,16.6837891 -0.516526,2.427673 -1.084704,4.855345 -1.652883,7.33467 -0.05165,0.258263 -0.309916,1.342967 -0.774789,2.944198 C 51.056542,30.25811 49.81688,26.48747 45.581367,10.475164 L 44.65162,7.1177455 42.895432,8.7189761 C 41.655769,8.6156709 41.035938,8.5640183 40.054539,8.5640183 c -3.150809,0 -4.95865,0.5681786 -6.869796,2.0144517 -3.254114,2.58263 -5.526828,6.301617 -5.526828,9.14251 0,1.342967 0.361568,2.634282 1.291315,4.545428 l 3.564029,-2.427672 c -1.291315,-2.78924 -1.652883,-3.873945 -1.652883,-5.216912 0,-1.549578 0.878094,-2.944198 2.324367,-3.718987 1.239662,-0.671484 2.427672,-0.878095 4.855344,-0.878095 1.291315,0 2.117757,0 3.925598,0.103306 -2.37602,10.382172 -4.390471,16.8904 -6.095007,19.937903 -1.084704,1.911146 -2.221062,2.479325 -4.958649,2.479325 -1.084705,0 -1.756189,-0.05165 -3.202462,-0.206611 z"
         id="path1145"
         style="fill:url(#linearGradient11099);fill-opacity:1;stroke-width:0.745;stroke-dasharray:none" />
      <path
         d="m 65.969733,37.851042 c 1.342968,0 1.39462,0 2.995851,0.05165 h 1.756188 c 0.309916,0 0.981399,0 1.807841,0.05165 3.460724,0.05165 3.460724,0.05165 4.390471,0.05165 3.564029,0 6.198312,-0.671484 9.710689,-2.37602 4.648734,-2.376019 6.921448,-5.320217 6.921448,-9.090857 0,-1.601231 -0.774789,-3.099156 -2.066104,-4.080555 -1.084705,-0.826442 -2.221062,-1.136358 -4.700387,-1.446273 5.16526,-2.272715 7.696238,-5.113608 7.696238,-8.419374 0,-3.4607241 -2.737588,-4.9069969 -9.194163,-4.9069969 h -0.774789 l 0.413221,-1.6012306 -4.183861,1.807841 c -4.442123,0.6714838 -6.973101,1.4462728 -9.297468,2.8408925 -4.132207,2.530978 -6.249964,6.14666 -6.249964,10.692089 0,1.084704 0.103305,1.80784 0.361568,3.357418 L 69.68872,22.87178 c -0.464873,-2.427672 -0.516526,-2.78924 -0.516526,-3.822292 0,-3.512377 1.084705,-5.681786 3.718987,-7.386322 2.014452,-1.342967 4.132208,-1.9627985 7.386322,-2.1694089 L 76.455211,24.782934 c -2.16941,8.9359 -3.047504,10.072257 -8.057806,10.588783 z M 80.742376,22.820136 c 0.9814,-0.103306 1.446273,-0.103306 1.962799,-0.103306 4.080555,0 6.35327,1.807841 6.35327,5.010303 0,1.962798 -0.826442,4.235513 -2.117757,5.681786 -1.39462,1.60123 -3.460724,2.427672 -6.043354,2.427672 -1.39462,0 -2.530977,-0.103305 -7.644585,-0.671484 5.061955,-4.493776 5.888397,-5.733439 6.973101,-10.382173 z M 84.151448,9.1321969 c 2.479325,0.051653 3.099156,0.1549578 3.822292,0.516526 1.239663,0.5681781 2.014452,2.0661041 2.014452,3.7706401 0,2.427672 -1.18801,4.906997 -2.944199,6.249964 -1.60123,1.18801 -3.150808,1.652883 -5.940048,1.704536 z"
         id="path1147"
         style="fill:url(#linearGradient11101);fill-opacity:1;stroke-width:0.745;stroke-dasharray:none" />
      <path
         d="m 94.105948,37.437821 c 1.18801,0.361569 1.756188,0.464874 2.737588,0.464874 3.512374,0 5.940044,-1.859494 12.706544,-9.607384 4.08055,0 7.12805,0.05165 9.14251,0.206611 -0.10331,0.619831 -0.20662,1.239662 -0.25827,1.859493 -0.1033,0.516526 -0.25826,1.601231 -0.41322,2.737588 -0.1033,0.981399 -0.25826,1.911146 -0.30991,2.117757 -0.15496,0.878094 -0.25827,1.704535 -0.25827,2.221061 0,0.671484 0.51653,1.136357 1.18801,1.136357 0.20661,0 1.60123,-0.258263 4.18386,-0.723136 l 2.9442,-0.516526 c 0.36157,-0.05165 0.92975,-0.154958 1.80784,-0.309915 l 0.82644,-1.239663 c -2.11775,0.154958 -3.40907,0.258263 -3.82229,0.258263 -2.0661,0 -2.63428,-0.516526 -2.63428,-2.324367 0,-3.305766 2.01445,-17.768494 3.66733,-25.9812573 l -0.72313,-0.516526 c -1.54958,1.6012306 -1.65289,1.6528832 -2.73759,1.6528832 -0.67148,0 -0.92975,-0.051653 -2.9442,-0.3615682 -2.32437,-0.3615682 -3.66733,-0.516526 -4.70039,-0.516526 -2.37601,0 -4.85534,1.1880098 -7.28301,3.5640293 -2.73759,2.634283 -3.9256,4.906997 -3.9256,7.644585 0,1.239662 0.15496,2.066104 0.72314,3.564029 l 3.82229,-2.066104 c -0.82644,-2.427672 -1.08471,-3.615682 -1.08471,-4.803692 0,-2.944198 2.22107,-4.700386 5.99171,-4.700386 0.56817,0 1.23966,0.05165 1.91114,0.103305 l 1.23966,0.154958 c 0.72314,0.05165 1.23967,0.103305 1.60124,0.154958 0.82644,0.103305 1.29131,0.103305 2.68593,0.20661 l -8.9359,11.570182 c -2.16941,2.789241 -5.52683,6.714838 -6.92145,8.057806 -2.0661,2.014451 -3.61568,2.737588 -5.991699,2.737588 -0.878094,0 -1.342968,-0.05165 -2.272714,-0.361569 z m 17.045362,-11.260266 9.96895,-13.068108 -2.11776,13.068108 z"
         id="path1149"
         style="fill:url(#linearGradient11103);fill-opacity:1;stroke-width:0.745;stroke-dasharray:none" />
      <path
         d="m 158.39902,26.177555 c 1.65288,2.892545 1.65288,2.892545 1.65288,4.338818 0,2.737588 -1.60123,4.080555 -5.0103,4.080555 -2.01446,0 -4.08056,-0.103305 -7.33467,-0.41322 -4.23552,-0.413221 -5.11361,-0.464874 -6.92145,-0.464874 h -0.8781 -0.98139 l -1.65289,0.258263 c 1.9628,-2.066104 4.85535,-5.061955 7.12806,-7.386322 4.64873,-4.803691 8.98755,-9.194162 13.8429,-13.997854 l 3.97725,-4.0289027 -0.0517,-1.4979254 c -1.80784,1.549578 -3.20246,2.1177566 -5.1136,2.1177566 -0.51653,0 -3.56403,-0.258263 -9.14251,-0.774789 -3.87395,-0.4132208 -3.87395,-0.4132208 -4.33882,-0.4132208 -1.13636,0 -1.44627,0.258263 -2.27272,1.9627988 -0.61983,1.2913145 -2.27271,4.9069965 -3.40907,7.4379745 l 0.8781,1.291315 c 3.61568,-6.404923 3.87394,-6.714838 5.47517,-6.714838 0.36157,0 0.8781,0.05165 1.39462,0.103305 2.27272,0.309916 3.35742,0.361568 5.26857,0.361568 2.47932,0 3.51237,-0.103305 5.9917,-0.516526 l -17.51023,17.510231 -2.63428,2.58263 -2.9442,2.892546 c -0.25827,0.258263 -1.03305,0.981399 -2.22106,2.014451 v 1.911146 c 1.70453,-1.239662 2.84089,-1.652883 4.80369,-1.652883 1.34297,0 3.15081,0.103306 5.11361,0.309916 6.45657,0.671484 11.26026,1.084704 12.55158,1.084704 1.44627,0 2.63428,-0.464873 3.61568,-1.39462 0.67148,-0.619831 0.9814,-1.033052 2.53098,-2.99585 0.56817,-0.723137 1.0847,-1.342968 1.18801,-1.497926 1.54957,-1.859493 1.85949,-2.634282 1.85949,-4.390471 0,-1.497925 -0.25826,-2.58263 -0.9814,-4.442123 z"
         id="path1151"
         style="fill:url(#linearGradient11105);fill-opacity:1;stroke-width:0.745;stroke-dasharray:none" />
    </g>
  </g>
</svg>
