<?xml version="1.0" encoding="UTF-8" standalone="no"?>
<svg
   version="1.0"
   width="48"
   height="48"
   viewBox="0 0 36 36"
   preserveAspectRatio="xMidYMid"
   id="svg13148"
   sodipodi:docname="juggling-is-better-then-magic.svg"
   inkscape:export-filename="../repos/inbaz3/apps/inbaz3/public/images/juggling-icon-2.svg"
   inkscape:export-xdpi="96"
   inkscape:export-ydpi="96"
   xmlns:inkscape="http://www.inkscape.org/namespaces/inkscape"
   xmlns:sodipodi="http://sodipodi.sourceforge.net/DTD/sodipodi-0.dtd"
   xmlns="http://www.w3.org/2000/svg"
   xmlns:svg="http://www.w3.org/2000/svg">
  <defs
     id="defs13152" />
  <sodipodi:namedview
     id="namedview13150"
     pagecolor="#ffffff"
     bordercolor="#000000"
     borderopacity="0.25"
     inkscape:showpageshadow="2"
     inkscape:pageopacity="0.0"
     inkscape:pagecheckerboard="0"
     inkscape:deskcolor="#d1d1d1"
     inkscape:document-units="pt"
     showgrid="false" />
  <metadata
     id="metadata13030">
Created by potrace 1.16, written by Peter Selinger 2001-2019
</metadata>
  <g
     transform="matrix(0.00869897,0,0,-0.00869897,-5.0677071,41.277812)"
     fill="#000000"
     stroke="none"
     id="g13146"
     style="fill:#800000">
    <path
       d="m 2173,4545 c -34,-14 -43,-31 -43,-80 0,-59 68,-94 117,-60 79,55 15,177 -74,140 z m 18,-38 c -13,-13 -26,-3 -16,12 3,6 11,8 17,5 6,-4 6,-10 -1,-17 z"
       id="path13032"
       style="fill:#800000" />
    <path
       d="m 3058,4430 c -82,-25 -133,-100 -126,-187 5,-57 25,-92 72,-127 21,-16 42,-21 90,-21 53,0 68,4 99,28 50,38 68,68 74,121 10,86 -41,162 -124,185 -43,12 -48,12 -85,1 z m 137,-63 c 46,-46 55,-85 25,-109 -43,-35 -125,-16 -173,41 -15,18 -27,41 -27,51 0,29 39,50 93,50 42,0 54,-5 82,-33 z"
       id="path13034"
       style="fill:#800000" />
    <path
       d="m 2583,4320 c 43,-8 81,-33 111,-74 16,-21 21,-42 21,-90 0,-54 -5,-69 -29,-100 -55,-73 -129,-95 -201,-60 -45,21 -65,45 -87,106 l -19,53 4,-48 c 17,-181 257,-214 341,-46 33,67 34,129 3,184 -32,56 -79,85 -136,84 l -46,-1 z"
       id="path13036"
       style="fill:#800000" />
    <path
       d="m 3502,4268 c 6,-18 28,-21 28,-4 0,9 -7,16 -16,16 -9,0 -14,-5 -12,-12 z"
       id="path13038"
       style="fill:#800000" />
    <path
       d="m 1120,4264 c 0,-5 47,-68 274,-363 121,-156 152,-194 140,-171 -21,42 -399,540 -410,540 -2,0 -4,-3 -4,-6 z"
       id="path13040"
       style="fill:#800000" />
    <path
       d="m 2411,4181 c -1,-59 31,-124 76,-152 43,-27 108,-29 131,-4 16,16 16,17 -5,6 -82,-42 -173,24 -192,139 l -9,55 z"
       id="path13042"
       style="fill:#800000" />
    <path
       d="m 3731,4118 c -186,-177 -354,-345 -384,-383 -17,-22 84,72 226,210 141,137 257,251 257,252 0,11 -24,-8 -99,-79 z"
       id="path13044"
       style="fill:#800000" />
    <path
       d="m 1365,4130 c 16,-28 224,-286 241,-301 10,-8 -35,54 -100,138 -106,137 -167,208 -141,163 z"
       id="path13046"
       style="fill:#800000" />
    <path
       d="m 1760,4113 c -20,-18 -33,-41 -37,-65 -5,-33 -2,-41 30,-73 47,-47 86,-48 133,-1 24,25 34,43 34,66 0,23 -10,42 -34,66 -43,43 -83,45 -126,7 z m 27,-30 c -9,-9 -19,-14 -23,-11 -10,10 6,28 24,28 15,0 15,-1 -1,-17 z"
       id="path13048"
       style="fill:#800000" />
    <path
       d="m 2147,4092 c -33,-37 -8,-92 41,-92 24,0 62,32 62,53 0,49 -70,75 -103,39 z m 73,-17 c 10,-12 9,-20 -4,-40 -9,-14 -19,-25 -22,-25 -17,0 -44,23 -44,38 0,38 46,56 70,27 z"
       id="path13050"
       style="fill:#800000" />
    <path
       d="m 2256,3995 c -3,-9 1,-18 10,-22 19,-7 39,11 30,26 -10,16 -33,13 -40,-4 z"
       id="path13052"
       style="fill:#800000" />
    <path
       d="m 2796,3931 c -11,-18 6,-42 28,-39 29,4 29,42 -1,46 -11,2 -24,-1 -27,-7 z m 34,-16 c 0,-8 -4,-15 -10,-15 -5,0 -10,7 -10,15 0,8 5,15 10,15 6,0 10,-7 10,-15 z"
       id="path13054"
       style="fill:#800000" />
    <path
       d="m 3078,3919 c -21,-12 -24,-69 -6,-87 30,-30 88,1 88,46 0,20 -34,52 -55,52 -5,0 -18,-5 -27,-11 z"
       id="path13056"
       style="fill:#800000" />
    <path
       d="m 2523,3874 c -3,-8 1,-22 9,-30 13,-13 16,-13 27,0 7,9 11,23 7,31 -7,20 -35,19 -43,-1 z"
       id="path13058"
       style="fill:#800000" />
    <path
       d="m 1170,3849 c -106,-23 -133,-184 -41,-246 89,-60 211,5 211,112 0,89 -81,153 -170,134 z m 80,-34 c 40,-21 60,-53 60,-98 0,-56 -52,-107 -108,-107 -40,0 -93,30 -91,53 0,8 2,8 6,-1 7,-17 57,-42 86,-42 33,0 65,29 72,65 4,23 3,26 -4,10 -14,-33 -40,-49 -79,-48 -29,1 -43,8 -64,34 -16,18 -28,39 -28,47 0,26 31,72 58,86 35,19 56,20 92,1 z"
       id="path13060"
       style="fill:#800000" />
    <path
       d="m 2254,3805 c -4,-9 -2,-21 4,-27 16,-16 47,-5 47,17 0,26 -42,34 -51,10 z m 41,-4 c 7,-12 -12,-24 -25,-16 -11,7 -4,25 10,25 5,0 11,-4 15,-9 z"
       id="path13062"
       style="fill:#800000" />
    <path
       d="m 3643,3771 c -32,-27 -41,-41 -25,-41 14,1 85,70 71,70 -8,-1 -29,-13 -46,-29 z"
       id="path13064"
       style="fill:#800000" />
    <path
       d="m 1994,3762 c -39,-26 -38,-92 1,-118 65,-42 140,51 85,106 -20,20 -65,26 -86,12 z m 28,-34 c -6,-6 -15,-8 -19,-4 -4,4 -1,11 7,16 19,12 27,3 12,-12 z"
       id="path13066"
       style="fill:#800000" />
    <path
       d="m 2779,3749 c -16,-30 3,-69 34,-69 29,0 47,17 47,45 0,45 -60,63 -81,24 z"
       id="path13068"
       style="fill:#800000" />
    <path
       d="m 1640,3689 c -49,-10 -90,-59 -90,-107 0,-77 73,-141 147,-129 28,5 36,2 50,-19 15,-23 15,-26 -7,-49 -13,-14 -27,-25 -31,-25 -15,0 -19,34 -4,50 19,21 9,33 -16,19 -26,-13 -24,-38 7,-99 29,-57 62,-77 97,-59 45,24 44,34 -9,142 l -34,69 20,25 c 33,42 21,125 -23,162 -24,19 -69,28 -107,20 z m 81,-40 24,-21 -25,16 c -13,9 -38,16 -55,16 -17,0 -42,-7 -55,-16 l -25,-16 24,21 c 13,12 37,21 56,21 19,0 43,-9 56,-21 z m 72,-303 c 12,-35 -10,-62 -41,-52 -33,11 -39,46 -11,67 30,23 40,20 52,-15 z"
       id="path13070"
       style="fill:#800000" />
    <path
       d="m 2227,3653 c -12,-11 -7,-33 8,-39 20,-8 45,13 38,32 -5,14 -34,19 -46,7 z m 33,-13 c 0,-5 -7,-10 -16,-10 -8,0 -12,5 -9,10 3,6 10,10 16,10 5,0 9,-4 9,-10 z"
       id="path13072"
       style="fill:#800000" />
    <path
       d="m 2505,3639 c -83,-46 -125,-95 -140,-167 -18,-87 31,-191 110,-233 44,-24 45,-25 45,-76 v -52 l -35,6 c -58,9 -113,-19 -194,-100 -40,-39 -96,-107 -124,-149 -29,-43 -55,-77 -59,-78 -4,0 -10,9 -13,20 -20,64 -67,152 -76,143 -7,-7 -5,-23 5,-48 22,-52 19,-58 -5,-12 -11,21 -23,37 -27,35 -4,-2 -20,-10 -35,-18 -16,-8 -26,-19 -22,-27 12,-31 15,-46 4,-25 -7,12 -15,22 -18,22 -9,-1 -87,-119 -116,-178 -66,-134 -85,-340 -45,-498 30,-122 100,-252 184,-341 39,-42 76,-91 82,-109 11,-32 279,-529 390,-723 30,-52 53,-96 50,-98 -8,-9 -73,79 -113,153 -23,44 -49,88 -58,99 -15,19 -16,14 -12,-70 3,-67 9,-102 26,-137 49,-101 154,-171 260,-172 148,-1 291,139 291,286 0,95 -16,89 -89,-32 -22,-36 -59,-83 -82,-105 -39,-36 -41,-37 -24,-10 67,107 99,166 210,390 119,240 195,419 183,430 -3,4 -15,7 -27,8 -29,2 -27,7 19,52 124,121 200,320 200,522 0,117 -21,209 -72,315 -23,49 -39,90 -37,92 2,2 88,44 191,94 143,69 187,94 182,105 -10,26 31,40 71,26 29,-11 40,-10 68,3 32,15 34,15 64,-13 66,-59 164,-60 238,-3 69,52 93,160 55,239 -33,68 -86,100 -166,100 -72,0 -102,-17 -147,-83 -16,-23 -35,-42 -43,-42 -8,0 -38,-21 -65,-47 -46,-43 -50,-51 -47,-85 3,-30 0,-39 -19,-47 -20,-9 -25,-7 -39,20 -12,25 -20,30 -39,25 -44,-11 -370,-168 -386,-186 -14,-16 -16,-16 -45,7 -88,73 -252,199 -292,224 -32,20 -59,29 -89,29 h -43 v 40 c 0,22 0,43 0,48 -1,4 12,10 27,13 98,20 173,111 173,209 0,125 -92,220 -212,220 -29,0 -62,-6 -73,-11 z m 150,-101 c 80,-63 58,-172 -44,-222 -46,-22 -50,-22 -82,-7 -68,33 -98,116 -64,182 34,66 135,91 190,47 z m 20,-208 c -16,-16 -32,-30 -37,-30 -8,0 53,59 61,60 3,0 -8,-13 -24,-30 z m -58,-36 c -3,-3 -12,-4 -19,-1 -8,3 -5,6 6,6 11,1 17,-2 13,-5 z m 1293,-32 c 49,-24 80,-75 80,-129 0,-38 -6,-51 -33,-78 -61,-61 -159,-71 -207,-20 -29,31 -29,84 1,124 17,23 20,37 15,65 -6,32 -4,37 16,46 37,14 90,11 128,-8 z m -179,-93 c -12,-16 -25,-45 -30,-66 -7,-28 -9,-32 -10,-13 -1,31 50,140 56,122 3,-8 -4,-27 -16,-43 z m -61,-17 c 0,-5 -13,-21 -30,-37 -27,-26 -28,-29 -13,-41 15,-10 15,-16 4,-40 l -13,-29 26,24 c 19,18 26,20 26,10 0,-38 -59,-53 -92,-22 -29,26 -21,53 27,100 43,41 65,53 65,35 z m -5,-61 c -3,-6 -14,-11 -23,-11 -15,1 -15,2 2,15 21,16 32,13 21,-4 z m -1090,-16 c 0,-17 -41,-17 -55,0 -12,15 -10,16 21,13 19,-2 34,-7 34,-13 z m 45,-37 c -73,-73 -114,-192 -161,-468 -21,-130 -31,-160 -50,-160 -14,0 -11,47 11,171 44,251 98,398 170,463 58,52 83,47 30,-6 z m 1149,-53 c 52,-26 128,-17 177,23 11,9 5,2 -13,-15 -30,-30 -38,-33 -94,-33 -58,0 -64,2 -100,39 -22,21 -39,45 -39,52 0,8 9,0 20,-18 10,-18 33,-39 49,-48 z m -309,30 c 0,-9 -392,-196 -398,-190 -11,10 15,25 198,109 182,84 200,92 200,81 z m -527,-152 c 42,-25 77,-47 77,-50 0,-3 -19,6 -42,20 -24,13 -87,48 -140,76 -54,29 -98,55 -98,57 0,6 111,-50 203,-103 z m -669,-43 c -70,-77 -129,-140 -131,-140 -2,0 4,15 14,32 18,33 223,248 236,248 4,0 -50,-63 -119,-140 z m 616,-25 c 133,-80 134,-82 166,-146 66,-130 79,-289 34,-431 -11,-34 -22,-85 -26,-113 -25,-206 -126,-380 -254,-439 -83,-39 -84,-39 -76,52 21,259 27,352 29,482 l 2,145 -217,3 -218,2 v -33 c 0,-34 43,-245 104,-516 20,-85 34,-157 32,-159 -10,-9 -120,22 -173,48 -166,84 -288,237 -365,461 -30,88 -32,102 -33,234 0,120 3,150 23,210 13,39 35,88 49,110 l 26,40 37,-80 c 42,-91 70,-114 116,-93 14,7 70,69 125,140 55,70 105,130 110,133 5,4 7,-12 4,-37 -23,-194 -47,-384 -51,-389 -2,-4 -1,-14 2,-23 5,-14 33,-16 209,-16 129,0 206,4 210,10 6,10 -9,326 -21,444 -5,48 -4,57 7,50 8,-5 75,-45 149,-89 z m -820,20 c 0,-5 -5,-3 -10,5 -5,8 -10,20 -10,25 0,6 5,3 10,-5 5,-8 10,-19 10,-25 z m -90,-20 c 0,-5 -5,-3 -10,5 -5,8 -10,20 -10,25 0,6 5,3 10,-5 5,-8 10,-19 10,-25 z m 449,-627 c 12,-90 33,-219 46,-288 26,-132 32,-184 15,-143 -34,85 -118,560 -103,586 13,23 22,-9 42,-155 z m 239,15 c -38,-2 -98,-2 -135,0 -38,2 -7,3 67,3 74,0 105,-1 68,-3 z m -31,-65 c -3,-7 -5,-2 -5,12 0,14 2,19 5,13 2,-7 2,-19 0,-25 z m -29,-323 -4,-295 h 43 c 45,0 63,17 63,59 0,14 8,22 28,27 77,16 136,44 206,98 38,30 38,30 31,5 -4,-13 -92,-196 -196,-407 -119,-241 -194,-382 -202,-380 -6,2 -43,64 -80,138 -38,74 -134,255 -213,402 -79,146 -144,269 -144,273 0,3 15,-5 33,-19 51,-39 155,-84 234,-102 81,-18 78,-13 92,-144 6,-51 8,-55 35,-58 28,-4 28,-4 23,-55 -4,-46 -9,-55 -56,-96 -28,-26 -51,-51 -51,-58 0,-40 139,-60 200,-28 37,19 43,40 30,117 -17,105 -15,118 18,118 43,0 75,35 68,73 -8,41 -45,63 -61,37 -3,-5 -33,-10 -65,-10 h -59 l -5,43 c -3,23 -8,158 -11,300 l -7,257 h 27 27 z m 39,218 c -3,-10 -5,-2 -5,17 0,19 2,27 5,18 2,-10 2,-26 0,-35 z m -140,-325 c -3,-8 -6,-5 -6,6 -1,11 2,17 5,13 3,-3 4,-12 1,-19 z m 156,-253 c -2,-5 -32,-11 -68,-13 -54,-2 -65,0 -65,13 0,13 11,15 68,13 38,-2 66,-7 65,-13 z"
       id="path13074"
       style="fill:#800000" />
    <path
       d="m 2080,2433 c -53,-19 -82,-89 -60,-142 12,-30 62,-61 97,-61 34,0 81,37 93,74 25,77 -55,156 -130,129 z m -20,-78 c 0,-8 -4,-15 -10,-15 -5,0 -10,7 -10,15 0,8 5,15 10,15 6,0 10,-7 10,-15 z"
       id="path13076"
       style="fill:#800000" />
    <path
       d="m 2140,1995 c -19,-23 -8,-50 20,-50 16,0 26,6 28,18 4,18 -14,47 -28,47 -4,0 -13,-7 -20,-15 z m 34,-20 c 3,-9 0,-15 -9,-15 -8,0 -15,7 -15,15 0,8 4,15 9,15 5,0 11,-7 15,-15 z"
       id="path13078"
       style="fill:#800000" />
    <path
       d="m 3254,3640 c -84,-34 -61,-169 29,-170 34,0 87,48 87,80 0,33 -26,75 -55,88 -30,14 -32,14 -61,2 z m 70,-42 c 16,-26 -14,-53 -49,-44 -31,8 -42,31 -24,52 16,19 59,14 73,-8 z"
       id="path13080"
       style="fill:#800000" />
    <path
       d="m 954,3595 c -8,-21 2,-45 19,-45 20,0 40,27 33,45 -7,19 -45,20 -52,0 z"
       id="path13082"
       style="fill:#800000" />
    <path
       d="m 3906,3594 c -36,-35 -5,-114 44,-114 24,0 70,42 70,63 0,8 -9,26 -21,41 -24,30 -69,35 -93,10 z m 44,-24 c 0,-5 -4,-10 -9,-10 -6,0 -13,5 -16,10 -3,6 1,10 9,10 9,0 16,-4 16,-10 z"
       id="path13084"
       style="fill:#800000" />
    <path
       d="m 3012,3568 c -30,-30 11,-85 44,-57 18,15 18,34 -2,53 -19,19 -26,20 -42,4 z m 38,-34 c 0,-8 -7,-14 -15,-14 -15,0 -21,21 -9,33 10,9 24,-2 24,-19 z"
       id="path13086"
       style="fill:#800000" />
    <path
       d="m 3537,3534 c -14,-15 -6,-34 14,-34 14,0 19,5 17,17 -3,18 -20,27 -31,17 z"
       id="path13088"
       style="fill:#800000" />
    <path
       d="m 1144,3410 c -11,-4 -26,-22 -33,-38 -11,-25 -10,-35 4,-62 15,-30 19,-31 53,-25 20,4 45,14 55,22 26,24 22,68 -9,92 -29,23 -38,24 -70,11 z m 71,-40 c 14,-44 -27,-83 -70,-66 -18,7 -20,57 -3,74 20,20 66,15 73,-8 z"
       id="path13090"
       style="fill:#800000" />
    <path
       d="m 1465,3401 c -7,-12 12,-24 25,-16 11,7 4,25 -10,25 -5,0 -11,-4 -15,-9 z"
       id="path13092"
       style="fill:#800000" />
    <path
       d="m 2104,3345 c -8,-21 2,-45 19,-45 8,0 20,7 27,15 10,12 10,18 0,30 -7,8 -19,15 -27,15 -7,0 -16,-7 -19,-15 z m 31,-25 c -5,-8 -11,-8 -17,-2 -6,6 -7,16 -3,22 5,8 11,8 17,2 6,-6 7,-16 3,-22 z"
       id="path13094"
       style="fill:#800000" />
    <path
       d="m 2992,3313 c 2,-10 10,-18 18,-18 8,0 16,8 18,18 2,12 -3,17 -18,17 -15,0 -20,-5 -18,-17 z m 28,3 c 0,-3 -4,-8 -10,-11 -5,-3 -10,-1 -10,4 0,6 5,11 10,11 6,0 10,-2 10,-4 z"
       id="path13096"
       style="fill:#800000" />
    <path
       d="m 857,3309 c -38,-22 -9,-87 32,-74 21,6 36,38 26,55 -12,19 -40,29 -58,19 z m 41,-37 c 3,-16 -2,-22 -17,-22 -24,0 -33,13 -25,35 9,23 38,14 42,-13 z"
       id="path13098"
       style="fill:#800000" />
    <path
       d="m 3178,3294 c -63,-33 -75,-114 -27,-169 27,-30 37,-35 74,-35 113,0 156,143 61,201 -37,23 -71,24 -108,3 z m 107,-39 c 53,-52 18,-135 -56,-135 -71,0 -105,85 -54,135 15,16 36,25 55,25 19,0 40,-9 55,-25 z"
       id="path13100"
       style="fill:#800000" />
    <path
       d="m 3497,3296 c -8,-21 3,-27 19,-11 18,17 18,25 0,25 -8,0 -16,-6 -19,-14 z"
       id="path13102"
       style="fill:#800000" />
    <path
       d="m 1805,3265 c -21,-13 -42,-22 -46,-19 -28,17 -9,-37 61,-176 l 81,-160 52,27 c 29,16 53,35 55,43 3,19 -139,303 -153,306 -5,1 -28,-9 -50,-21 z"
       id="path13104"
       style="fill:#800000" />
    <path
       d="m 1637,3243 c -4,-3 -7,-15 -7,-26 0,-16 5,-18 27,-12 35,8 35,9 27,29 -6,16 -35,22 -47,9 z m 33,-12 c 0,-12 -20,-25 -27,-18 -7,7 6,27 18,27 5,0 9,-4 9,-9 z"
       id="path13106"
       style="fill:#800000" />
    <path
       d="m 1190,3226 c 0,-10 349,-160 356,-153 5,5 -332,157 -347,157 -5,0 -9,-2 -9,-4 z"
       id="path13108"
       style="fill:#800000" />
    <path
       d="m 2290,3210 c 0,-23 25,-27 33,-6 7,16 -1,26 -20,26 -7,0 -13,-9 -13,-20 z"
       id="path13110"
       style="fill:#800000" />
    <path
       d="m 4420,3051 c -275,-85 -315,-99 -308,-106 3,-3 126,31 274,76 148,45 277,83 287,86 16,5 25,23 10,23 -5,-1 -123,-36 -263,-79 z"
       id="path13112"
       style="fill:#800000" />
    <path
       d="m 580,3072 c 0,-4 28,-15 63,-25 34,-9 183,-52 331,-97 274,-81 297,-87 280,-71 -10,11 -635,201 -659,201 -8,0 -15,-4 -15,-8 z"
       id="path13114"
       style="fill:#800000" />
    <path
       d="m 3958,2826 c -271,-84 -273,-85 -266,-92 7,-6 509,145 523,157 18,18 -22,7 -257,-65 z"
       id="path13116"
       style="fill:#800000" />
    <path
       d="m 1251,2774 c -28,-35 -26,-69 4,-99 30,-30 64,-32 99,-4 33,26 36,79 6,109 -30,30 -83,27 -109,-6 z"
       id="path13118"
       style="fill:#800000" />
    <path
       d="m 1625,2791 c -6,-11 9,-23 19,-14 9,9 7,23 -3,23 -6,0 -12,-4 -16,-9 z"
       id="path13120"
       style="fill:#800000" />
    <path
       d="m 912,2680 c -31,-13 -46,-55 -30,-88 31,-63 120,-50 126,19 4,53 -46,88 -96,69 z"
       id="path13122"
       style="fill:#800000" />
    <path
       d="m 4106,2588 c -40,-35 -43,-78 -11,-116 54,-64 149,-29 149,55 0,70 -85,108 -138,61 z m 99,-31 c 19,-28 19,-46 -2,-69 -23,-25 -68,-23 -87,4 -23,32 -20,54 9,76 29,23 59,19 80,-11 z"
       id="path13124"
       style="fill:#800000" />
    <path
       d="m 1566,2511 c -10,-16 6,-42 23,-39 9,2 17,13 19,26 3,16 -2,22 -17,22 -11,0 -22,-4 -25,-9 z m 34,-16 c 0,-8 -4,-15 -9,-15 -13,0 -22,16 -14,24 11,11 23,6 23,-9 z"
       id="path13126"
       style="fill:#800000" />
    <path
       d="m 3792,2454 c -26,-18 -30,-62 -6,-71 25,-9 64,9 82,40 15,24 15,29 2,37 -22,14 -53,12 -78,-6 z m 68,-15 c 0,-17 -41,-50 -58,-47 -25,5 -21,41 7,54 25,13 51,9 51,-7 z"
       id="path13128"
       style="fill:#800000" />
    <path
       d="m 1201,2216 c -85,-47 -53,-195 42,-196 100,-1 144,105 73,176 -37,37 -73,43 -115,20 z m 16,-43 c -9,-9 -20,-13 -24,-9 -4,4 1,14 11,22 25,18 35,8 13,-13 z"
       id="path13130"
       style="fill:#800000" />
    <path
       d="m 3707,2190 c -51,-40 -43,-126 14,-155 35,-19 53,-19 88,0 62,31 57,126 -8,159 -40,21 -63,20 -94,-4 z m 49,-25 c -3,-8 0,-15 6,-15 9,0 9,-3 1,-11 -8,-8 -16,-5 -31,9 -22,22 -19,32 11,32 13,0 17,-5 13,-15 z"
       id="path13132"
       style="fill:#800000" />
    <path
       d="m 810,2080 c -91,-16 -169,-30 -175,-30 -6,0 -6,-3 0,-9 9,-8 243,30 360,57 88,22 -22,10 -185,-18 z"
       id="path13134"
       style="fill:#800000" />
    <path
       d="m 1457,2009 c -22,-13 -22,-58 -1,-66 39,-15 73,46 37,65 -12,7 -25,7 -36,1 z"
       id="path13136"
       style="fill:#800000" />
    <path
       d="m 1596,1655 c -8,-22 1,-35 25,-35 15,0 20,6 17,22 -4,27 -33,36 -42,13 z m 34,-15 c 0,-5 -7,-10 -15,-10 -8,0 -15,5 -15,10 0,6 7,10 15,10 8,0 15,-4 15,-10 z"
       id="path13138"
       style="fill:#800000" />
    <path
       d="m 1787,1659 c -39,-22 -4,-79 35,-58 10,5 18,18 18,29 0,25 -30,41 -53,29 z m 41,-26 c 5,-17 -26,-29 -40,-15 -6,6 -7,15 -3,22 9,14 37,9 43,-7 z"
       id="path13140"
       style="fill:#800000" />
    <path
       d="m 1435,1516 c -41,-18 -82,-68 -95,-116 -15,-58 3,-116 50,-161 65,-62 153,-58 221,10 125,124 -16,337 -176,267 z m 152,-59 c 29,-28 36,-44 39,-83 3,-33 1,-42 -4,-29 -9,19 -9,19 -21,-3 -26,-48 -113,-67 -171,-37 -35,18 -50,43 -50,85 0,103 130,145 207,67 z"
       id="path13142"
       style="fill:#800000" />
    <path
       d="m 2498,743 c -109,-4 -134,-22 -35,-25 82,-2 271,3 276,8 16,15 -94,23 -241,17 z"
       id="path13144"
       style="fill:#800000" />
  </g>
</svg>
